<svg id="visual" viewBox="0 0 1920 1080" width="1920" height="1080" xmlns="http://www.w3.org/2000/svg" xmlns:xlink="http://www.w3.org/1999/xlink" version="1.1"><rect x="0" y="0" width="1920" height="1080" fill="#1A1D26"></rect><path d="M0 625L13.8 631.7C27.7 638.3 55.3 651.7 83.2 659.5C111 667.3 139 669.7 166.8 672.3C194.7 675 222.3 678 250.2 681.7C278 685.3 306 689.7 333.8 689.3C361.7 689 389.3 684 417.2 665.5C445 647 473 615 500.8 617.5C528.7 620 556.3 657 584.2 669.7C612 682.3 640 670.7 667.8 652.2C695.7 633.7 723.3 608.3 751.2 612.3C779 616.3 807 649.7 834.8 657C862.7 664.3 890.3 645.7 918.2 629C946 612.3 974 597.7 1001.8 590.3C1029.7 583 1057.3 583 1085.2 597.8C1113 612.7 1141 642.3 1168.8 644.8C1196.7 647.3 1224.3 622.7 1252.2 619.2C1280 615.7 1308 633.3 1335.8 631.2C1363.7 629 1391.3 607 1419.2 600.2C1447 593.3 1475 601.7 1502.8 611.2C1530.7 620.7 1558.3 631.3 1586.2 643.3C1614 655.3 1642 668.7 1669.8 675.5C1697.7 682.3 1725.3 682.7 1753.2 671.7C1781 660.7 1809 638.3 1836.8 628.2C1864.7 618 1892.3 620 1906.2 621L1920 622L1920 1081L1906.2 1081C1892.3 1081 1864.7 1081 1836.8 1081C1809 1081 1781 1081 1753.2 1081C1725.3 1081 1697.7 1081 1669.8 1081C1642 1081 1614 1081 1586.2 1081C1558.3 1081 1530.7 1081 1502.8 1081C1475 1081 1447 1081 1419.2 1081C1391.3 1081 1363.7 1081 1335.8 1081C1308 1081 1280 1081 1252.2 1081C1224.3 1081 1196.7 1081 1168.8 1081C1141 1081 1113 1081 1085.2 1081C1057.3 1081 1029.7 1081 1001.8 1081C974 1081 946 1081 918.2 1081C890.3 1081 862.7 1081 834.8 1081C807 1081 779 1081 751.2 1081C723.3 1081 695.7 1081 667.8 1081C640 1081 612 1081 584.2 1081C556.3 1081 528.7 1081 500.8 1081C473 1081 445 1081 417.2 1081C389.3 1081 361.7 1081 333.8 1081C306 1081 278 1081 250.2 1081C222.3 1081 194.7 1081 166.8 1081C139 1081 111 1081 83.2 1081C55.3 1081 27.7 1081 13.8 1081L0 1081Z" fill="#6e1414"></path><path d="M0 645L13.8 642.8C27.7 640.7 55.3 636.3 83.2 638.3C111 640.3 139 648.7 166.8 651.5C194.7 654.3 222.3 651.7 250.2 660.5C278 669.3 306 689.7 333.8 696.8C361.7 704 389.3 698 417.2 688.5C445 679 473 666 500.8 663.2C528.7 660.3 556.3 667.7 584.2 674.3C612 681 640 687 667.8 694.7C695.7 702.3 723.3 711.7 751.2 715.5C779 719.3 807 717.7 834.8 716.7C862.7 715.7 890.3 715.3 918.2 704.2C946 693 974 671 1001.8 659.7C1029.7 648.3 1057.3 647.7 1085.2 646.5C1113 645.3 1141 643.7 1168.8 645C1196.7 646.3 1224.3 650.7 1252.2 649.8C1280 649 1308 643 1335.8 651.2C1363.7 659.3 1391.3 681.7 1419.2 687C1447 692.3 1475 680.7 1502.8 668.5C1530.7 656.3 1558.3 643.7 1586.2 641.7C1614 639.7 1642 648.3 1669.8 663.8C1697.7 679.3 1725.3 701.7 1753.2 701.7C1781 701.7 1809 679.3 1836.8 681C1864.7 682.7 1892.3 708.3 1906.2 721.2L1920 734L1920 1081L1906.2 1081C1892.3 1081 1864.7 1081 1836.8 1081C1809 1081 1781 1081 1753.2 1081C1725.3 1081 1697.7 1081 1669.8 1081C1642 1081 1614 1081 1586.2 1081C1558.3 1081 1530.7 1081 1502.8 1081C1475 1081 1447 1081 1419.2 1081C1391.3 1081 1363.7 1081 1335.8 1081C1308 1081 1280 1081 1252.2 1081C1224.3 1081 1196.7 1081 1168.8 1081C1141 1081 1113 1081 1085.2 1081C1057.3 1081 1029.7 1081 1001.8 1081C974 1081 946 1081 918.2 1081C890.3 1081 862.7 1081 834.8 1081C807 1081 779 1081 751.2 1081C723.3 1081 695.7 1081 667.8 1081C640 1081 612 1081 584.2 1081C556.3 1081 528.7 1081 500.8 1081C473 1081 445 1081 417.2 1081C389.3 1081 361.7 1081 333.8 1081C306 1081 278 1081 250.2 1081C222.3 1081 194.7 1081 166.8 1081C139 1081 111 1081 83.2 1081C55.3 1081 27.7 1081 13.8 1081L0 1081Z" fill="#7f1d19"></path><path d="M0 743L13.8 742.2C27.7 741.3 55.3 739.7 83.2 736.5C111 733.3 139 728.7 166.8 727.3C194.7 726 222.3 728 250.2 725.5C278 723 306 716 333.8 719C361.7 722 389.3 735 417.2 738.2C445 741.3 473 734.7 500.8 726C528.7 717.3 556.3 706.7 584.2 704.3C612 702 640 708 667.8 719.2C695.7 730.3 723.3 746.7 751.2 749.5C779 752.3 807 741.7 834.8 735.5C862.7 729.3 890.3 727.7 918.2 722.3C946 717 974 708 1001.8 708.8C1029.7 709.7 1057.3 720.3 1085.2 724.7C1113 729 1141 727 1168.8 733.3C1196.7 739.7 1224.3 754.3 1252.2 753.5C1280 752.7 1308 736.3 1335.8 735.2C1363.7 734 1391.3 748 1419.2 750.8C1447 753.7 1475 745.3 1502.8 741.3C1530.7 737.3 1558.3 737.7 1586.2 728.7C1614 719.7 1642 701.3 1669.8 695C1697.7 688.7 1725.3 694.3 1753.2 706C1781 717.7 1809 735.3 1836.8 748.8C1864.7 762.3 1892.3 771.7 1906.2 776.3L1920 781L1920 1081L1906.2 1081C1892.3 1081 1864.7 1081 1836.8 1081C1809 1081 1781 1081 1753.2 1081C1725.3 1081 1697.7 1081 1669.8 1081C1642 1081 1614 1081 1586.2 1081C1558.3 1081 1530.7 1081 1502.8 1081C1475 1081 1447 1081 1419.2 1081C1391.3 1081 1363.7 1081 1335.8 1081C1308 1081 1280 1081 1252.2 1081C1224.3 1081 1196.7 1081 1168.8 1081C1141 1081 1113 1081 1085.2 1081C1057.3 1081 1029.7 1081 1001.8 1081C974 1081 946 1081 918.2 1081C890.3 1081 862.7 1081 834.8 1081C807 1081 779 1081 751.2 1081C723.3 1081 695.7 1081 667.8 1081C640 1081 612 1081 584.2 1081C556.3 1081 528.7 1081 500.8 1081C473 1081 445 1081 417.2 1081C389.3 1081 361.7 1081 333.8 1081C306 1081 278 1081 250.2 1081C222.3 1081 194.7 1081 166.8 1081C139 1081 111 1081 83.2 1081C55.3 1081 27.7 1081 13.8 1081L0 1081Z" fill="#91261d"></path><path d="M0 750L13.8 759.5C27.7 769 55.3 788 83.2 796C111 804 139 801 166.8 796.5C194.7 792 222.3 786 250.2 781.5C278 777 306 774 333.8 774.5C361.7 775 389.3 779 417.2 772.8C445 766.7 473 750.3 500.8 749.8C528.7 749.3 556.3 764.7 584.2 765.7C612 766.7 640 753.3 667.8 756.5C695.7 759.7 723.3 779.3 751.2 782.3C779 785.3 807 771.7 834.8 777C862.7 782.3 890.3 806.7 918.2 810.5C946 814.3 974 797.7 1001.8 796.5C1029.7 795.3 1057.3 809.7 1085.2 815.8C1113 822 1141 820 1168.8 817.3C1196.7 814.7 1224.3 811.3 1252.2 802.2C1280 793 1308 778 1335.8 768C1363.7 758 1391.3 753 1419.2 759.5C1447 766 1475 784 1502.8 791.2C1530.7 798.3 1558.3 794.7 1586.2 784C1614 773.3 1642 755.7 1669.8 759.2C1697.7 762.7 1725.3 787.3 1753.2 792.8C1781 798.3 1809 784.7 1836.8 774.7C1864.7 764.7 1892.3 758.3 1906.2 755.2L1920 752L1920 1081L1906.2 1081C1892.3 1081 1864.7 1081 1836.8 1081C1809 1081 1781 1081 1753.2 1081C1725.3 1081 1697.7 1081 1669.8 1081C1642 1081 1614 1081 1586.2 1081C1558.3 1081 1530.7 1081 1502.8 1081C1475 1081 1447 1081 1419.2 1081C1391.3 1081 1363.7 1081 1335.8 1081C1308 1081 1280 1081 1252.2 1081C1224.3 1081 1196.7 1081 1168.8 1081C1141 1081 1113 1081 1085.2 1081C1057.3 1081 1029.7 1081 1001.8 1081C974 1081 946 1081 918.2 1081C890.3 1081 862.7 1081 834.8 1081C807 1081 779 1081 751.2 1081C723.3 1081 695.7 1081 667.8 1081C640 1081 612 1081 584.2 1081C556.3 1081 528.7 1081 500.8 1081C473 1081 445 1081 417.2 1081C389.3 1081 361.7 1081 333.8 1081C306 1081 278 1081 250.2 1081C222.3 1081 194.7 1081 166.8 1081C139 1081 111 1081 83.2 1081C55.3 1081 27.7 1081 13.8 1081L0 1081Z" fill="#a32f22"></path><path d="M0 862L13.8 856.8C27.7 851.7 55.3 841.3 83.2 830.8C111 820.3 139 809.7 166.8 814.2C194.7 818.7 222.3 838.3 250.2 842.7C278 847 306 836 333.8 837.8C361.7 839.7 389.3 854.3 417.2 852C445 849.7 473 830.3 500.8 826.3C528.7 822.3 556.3 833.7 584.2 834.7C612 835.7 640 826.3 667.8 827.2C695.7 828 723.3 839 751.2 845C779 851 807 852 834.8 843.5C862.7 835 890.3 817 918.2 805.8C946 794.7 974 790.3 1001.8 793.7C1029.7 797 1057.3 808 1085.2 821.8C1113 835.7 1141 852.3 1168.8 848.7C1196.7 845 1224.3 821 1252.2 815.7C1280 810.3 1308 823.7 1335.8 826.2C1363.7 828.7 1391.3 820.3 1419.2 812.2C1447 804 1475 796 1502.8 802.5C1530.7 809 1558.3 830 1586.2 843C1614 856 1642 861 1669.8 860C1697.7 859 1725.3 852 1753.2 849.3C1781 846.7 1809 848.3 1836.8 839.8C1864.7 831.3 1892.3 812.7 1906.2 803.3L1920 794L1920 1081L1906.2 1081C1892.3 1081 1864.7 1081 1836.8 1081C1809 1081 1781 1081 1753.2 1081C1725.3 1081 1697.7 1081 1669.8 1081C1642 1081 1614 1081 1586.2 1081C1558.3 1081 1530.7 1081 1502.8 1081C1475 1081 1447 1081 1419.2 1081C1391.3 1081 1363.7 1081 1335.8 1081C1308 1081 1280 1081 1252.2 1081C1224.3 1081 1196.7 1081 1168.8 1081C1141 1081 1113 1081 1085.2 1081C1057.3 1081 1029.7 1081 1001.8 1081C974 1081 946 1081 918.2 1081C890.3 1081 862.7 1081 834.8 1081C807 1081 779 1081 751.2 1081C723.3 1081 695.7 1081 667.8 1081C640 1081 612 1081 584.2 1081C556.3 1081 528.7 1081 500.8 1081C473 1081 445 1081 417.2 1081C389.3 1081 361.7 1081 333.8 1081C306 1081 278 1081 250.2 1081C222.3 1081 194.7 1081 166.8 1081C139 1081 111 1081 83.2 1081C55.3 1081 27.7 1081 13.8 1081L0 1081Z" fill="#b53926"></path><path d="M0 853L13.8 862.5C27.7 872 55.3 891 83.2 899.7C111 908.3 139 906.7 166.8 899C194.7 891.3 222.3 877.7 250.2 870.8C278 864 306 864 333.8 868.5C361.7 873 389.3 882 417.2 891C445 900 473 909 500.8 910.2C528.7 911.3 556.3 904.7 584.2 901.3C612 898 640 898 667.8 897.7C695.7 897.3 723.3 896.7 751.2 894C779 891.3 807 886.7 834.8 878.8C862.7 871 890.3 860 918.2 859.7C946 859.3 974 869.7 1001.8 877C1029.7 884.3 1057.3 888.7 1085.2 882.8C1113 877 1141 861 1168.8 857C1196.7 853 1224.3 861 1252.2 870.7C1280 880.3 1308 891.7 1335.8 897.7C1363.7 903.7 1391.3 904.3 1419.2 895C1447 885.7 1475 866.3 1502.8 857.7C1530.7 849 1558.3 851 1586.2 852C1614 853 1642 853 1669.8 850.5C1697.7 848 1725.3 843 1753.2 854C1781 865 1809 892 1836.8 902.5C1864.7 913 1892.3 907 1906.2 904L1920 901L1920 1081L1906.2 1081C1892.3 1081 1864.7 1081 1836.8 1081C1809 1081 1781 1081 1753.2 1081C1725.3 1081 1697.7 1081 1669.8 1081C1642 1081 1614 1081 1586.2 1081C1558.3 1081 1530.7 1081 1502.8 1081C1475 1081 1447 1081 1419.2 1081C1391.3 1081 1363.7 1081 1335.8 1081C1308 1081 1280 1081 1252.2 1081C1224.3 1081 1196.7 1081 1168.8 1081C1141 1081 1113 1081 1085.2 1081C1057.3 1081 1029.7 1081 1001.8 1081C974 1081 946 1081 918.2 1081C890.3 1081 862.7 1081 834.8 1081C807 1081 779 1081 751.2 1081C723.3 1081 695.7 1081 667.8 1081C640 1081 612 1081 584.2 1081C556.3 1081 528.7 1081 500.8 1081C473 1081 445 1081 417.2 1081C389.3 1081 361.7 1081 333.8 1081C306 1081 278 1081 250.2 1081C222.3 1081 194.7 1081 166.8 1081C139 1081 111 1081 83.2 1081C55.3 1081 27.7 1081 13.8 1081L0 1081Z" fill="#c7432a"></path><path d="M0 948L13.8 939.8C27.7 931.7 55.3 915.3 83.2 916.5C111 917.7 139 936.3 166.8 945.3C194.7 954.3 222.3 953.7 250.2 945.3C278 937 306 921 333.8 922.7C361.7 924.3 389.3 943.7 417.2 949.3C445 955 473 947 500.8 947C528.7 947 556.3 955 584.2 951C612 947 640 931 667.8 929.7C695.7 928.3 723.3 941.7 751.2 947.5C779 953.3 807 951.7 834.8 946.5C862.7 941.3 890.3 932.7 918.2 932.2C946 931.7 974 939.3 1001.8 935.7C1029.7 932 1057.3 917 1085.2 909.8C1113 902.7 1141 903.3 1168.8 904.8C1196.7 906.3 1224.3 908.7 1252.2 906.3C1280 904 1308 897 1335.8 898.2C1363.7 899.3 1391.3 908.7 1419.2 917.3C1447 926 1475 934 1502.8 939.2C1530.7 944.3 1558.3 946.7 1586.2 949.7C1614 952.7 1642 956.3 1669.8 954C1697.7 951.7 1725.3 943.3 1753.2 943C1781 942.7 1809 950.3 1836.8 953.5C1864.7 956.7 1892.3 955.3 1906.2 954.7L1920 954L1920 1081L1906.2 1081C1892.3 1081 1864.7 1081 1836.8 1081C1809 1081 1781 1081 1753.2 1081C1725.3 1081 1697.7 1081 1669.8 1081C1642 1081 1614 1081 1586.2 1081C1558.3 1081 1530.7 1081 1502.8 1081C1475 1081 1447 1081 1419.2 1081C1391.3 1081 1363.7 1081 1335.8 1081C1308 1081 1280 1081 1252.2 1081C1224.3 1081 1196.7 1081 1168.8 1081C1141 1081 1113 1081 1085.2 1081C1057.3 1081 1029.7 1081 1001.8 1081C974 1081 946 1081 918.2 1081C890.3 1081 862.7 1081 834.8 1081C807 1081 779 1081 751.2 1081C723.3 1081 695.7 1081 667.8 1081C640 1081 612 1081 584.2 1081C556.3 1081 528.7 1081 500.8 1081C473 1081 445 1081 417.2 1081C389.3 1081 361.7 1081 333.8 1081C306 1081 278 1081 250.2 1081C222.3 1081 194.7 1081 166.8 1081C139 1081 111 1081 83.2 1081C55.3 1081 27.7 1081 13.8 1081L0 1081Z" fill="#d94d2e"></path><path d="M0 990L13.8 986.7C27.7 983.3 55.3 976.7 83.2 970.8C111 965 139 960 166.8 966.3C194.7 972.7 222.3 990.3 250.2 991.7C278 993 306 978 333.8 968.7C361.7 959.3 389.3 955.7 417.2 963.2C445 970.7 473 989.3 500.8 994C528.7 998.7 556.3 989.3 584.2 978.7C612 968 640 956 667.8 954.8C695.7 953.7 723.3 963.3 751.2 973.8C779 984.3 807 995.7 834.8 999.2C862.7 1002.7 890.3 998.3 918.2 987.8C946 977.3 974 960.7 1001.8 961.7C1029.7 962.7 1057.3 981.3 1085.2 981.2C1113 981 1141 962 1168.8 959.5C1196.7 957 1224.3 971 1252.2 975.2C1280 979.3 1308 973.7 1335.8 972.8C1363.7 972 1391.3 976 1419.2 975.2C1447 974.3 1475 968.7 1502.8 968.3C1530.7 968 1558.3 973 1586.2 978.2C1614 983.3 1642 988.7 1669.8 993.5C1697.7 998.3 1725.3 1002.7 1753.2 1003.3C1781 1004 1809 1001 1836.8 995C1864.7 989 1892.3 980 1906.2 975.5L1920 971L1920 1081L1906.2 1081C1892.3 1081 1864.7 1081 1836.8 1081C1809 1081 1781 1081 1753.2 1081C1725.3 1081 1697.7 1081 1669.8 1081C1642 1081 1614 1081 1586.2 1081C1558.3 1081 1530.7 1081 1502.8 1081C1475 1081 1447 1081 1419.2 1081C1391.3 1081 1363.7 1081 1335.8 1081C1308 1081 1280 1081 1252.2 1081C1224.3 1081 1196.7 1081 1168.8 1081C1141 1081 1113 1081 1085.2 1081C1057.3 1081 1029.7 1081 1001.8 1081C974 1081 946 1081 918.2 1081C890.3 1081 862.7 1081 834.8 1081C807 1081 779 1081 751.2 1081C723.3 1081 695.7 1081 667.8 1081C640 1081 612 1081 584.2 1081C556.3 1081 528.7 1081 500.8 1081C473 1081 445 1081 417.2 1081C389.3 1081 361.7 1081 333.8 1081C306 1081 278 1081 250.2 1081C222.3 1081 194.7 1081 166.8 1081C139 1081 111 1081 83.2 1081C55.3 1081 27.7 1081 13.8 1081L0 1081Z" fill="#ec5732"></path><path d="M0 1056L13.8 1049.7C27.7 1043.3 55.3 1030.7 83.2 1021.5C111 1012.3 139 1006.7 166.8 1006.7C194.7 1006.7 222.3 1012.3 250.2 1012C278 1011.7 306 1005.3 333.8 1006C361.7 1006.7 389.3 1014.3 417.2 1020.7C445 1027 473 1032 500.8 1032.8C528.7 1033.7 556.3 1030.3 584.2 1031.2C612 1032 640 1037 667.8 1032.2C695.7 1027.3 723.3 1012.7 751.2 1007.5C779 1002.3 807 1006.7 834.8 1006.8C862.7 1007 890.3 1003 918.2 1000C946 997 974 995 1001.8 994.2C1029.7 993.3 1057.3 993.7 1085.2 1000.5C1113 1007.3 1141 1020.7 1168.8 1030.3C1196.7 1040 1224.3 1046 1252.2 1048C1280 1050 1308 1048 1335.8 1045.7C1363.7 1043.3 1391.3 1040.7 1419.2 1037.3C1447 1034 1475 1030 1502.8 1030.3C1530.7 1030.7 1558.3 1035.3 1586.2 1033.7C1614 1032 1642 1024 1669.8 1019.3C1697.7 1014.7 1725.3 1013.3 1753.2 1012.3C1781 1011.3 1809 1010.7 1836.8 1012.5C1864.7 1014.3 1892.3 1018.7 1906.2 1020.8L1920 1023L1920 1081L1906.2 1081C1892.3 1081 1864.7 1081 1836.8 1081C1809 1081 1781 1081 1753.2 1081C1725.3 1081 1697.7 1081 1669.8 1081C1642 1081 1614 1081 1586.2 1081C1558.3 1081 1530.7 1081 1502.8 1081C1475 1081 1447 1081 1419.2 1081C1391.3 1081 1363.7 1081 1335.8 1081C1308 1081 1280 1081 1252.2 1081C1224.3 1081 1196.7 1081 1168.8 1081C1141 1081 1113 1081 1085.2 1081C1057.3 1081 1029.7 1081 1001.8 1081C974 1081 946 1081 918.2 1081C890.3 1081 862.7 1081 834.8 1081C807 1081 779 1081 751.2 1081C723.3 1081 695.7 1081 667.8 1081C640 1081 612 1081 584.2 1081C556.3 1081 528.7 1081 500.8 1081C473 1081 445 1081 417.2 1081C389.3 1081 361.7 1081 333.8 1081C306 1081 278 1081 250.2 1081C222.3 1081 194.7 1081 166.8 1081C139 1081 111 1081 83.2 1081C55.3 1081 27.7 1081 13.8 1081L0 1081Z" fill="#fe6235"></path></svg>